<?xml version="1.0" encoding="utf-8"?>
<!-- Generator: Adobe Illustrator 16.0.4, SVG Export Plug-In . SVG Version: 6.00 Build 0)  -->
<!DOCTYPE svg PUBLIC "-//W3C//DTD SVG 1.1//EN" "http://www.w3.org/Graphics/SVG/1.1/DTD/svg11.dtd">
<svg version="1.1"
	 id="svg2" inkscape:version="0.48.4 r9939" inkscape:export-xdpi="90" inkscape:export-filename="/home/amarcuse/site/vlz/www/logos/postgresql/postgresql-horizontal.png" inkscape:export-ydpi="90" sodipodi:docname="postgresql-horizontal.svg" xmlns:svg="http://www.w3.org/2000/svg" xmlns:inkscape="http://www.inkscape.org/namespaces/inkscape" xmlns:dc="http://purl.org/dc/elements/1.1/" xmlns:rdf="http://www.w3.org/1999/02/22-rdf-syntax-ns#" xmlns:sodipodi="http://sodipodi.sourceforge.net/DTD/sodipodi-0.dtd" xmlns:cc="http://creativecommons.org/ns#"
	 xmlns="http://www.w3.org/2000/svg" xmlns:xlink="http://www.w3.org/1999/xlink" x="0px" y="0px" width="527.219px"
	 height="79.34px" viewBox="0 0 527.219 79.34" enable-background="new 0 0 527.219 79.34" xml:space="preserve">
<sodipodi:namedview  inkscape:window-maximized="0" inkscape:window-y="24" inkscape:window-x="65" inkscape:window-height="979" inkscape:window-width="1295" inkscape:current-layer="layer1" inkscape:document-units="px" inkscape:pageshadow="2" inkscape:pageopacity="0.0" id="base" inkscape:cy="31.992184" bordercolor="#666666" inkscape:zoom="2.1490085" borderopacity="1.0" showgrid="false" inkscape:cx="270.35723" pagecolor="#ffffff" fit-margin-left="0" fit-margin-top="0" fit-margin-bottom="0" fit-margin-right="0">
	</sodipodi:namedview>
<g id="layer1" transform="translate(0.14109154,-972.98705)" inkscape:groupmode="layer" inkscape:label="Layer 1">
	<g id="g4244" transform="matrix(1.25,0,0,-1.25,-43.404223,884.20409)">
	</g>
	<g id="g4466" transform="matrix(0.45876078,0,0,0.45876078,100.63361,921.29382)">
		<path id="path4254" inkscape:connector-curvature="0" fill="#231F20" d="M71.038,202.116H26.601v-44.694H73.45
			c17.147,0,25.722,7.565,25.722,22.694C99.172,194.785,89.793,202.116,71.038,202.116 M102.976,156.898
			c-6.089-5.452-14.61-8.181-25.558-8.181l-63.637,0.353v106.914h12.82l-0.118-45.516h47.353c11.876,0,21.223-2.727,28.042-8.178
			c6.82-5.454,10.232-13.017,10.232-22.696C112.109,169.917,109.064,162.354,102.976,156.898z"/>
		<path id="path4256" inkscape:connector-curvature="0" fill="#231F20" d="M185.963,233.544c-1.301,3.61-3.33,6.642-6.085,9.096
			c-5.741,5.607-14.504,8.404-26.292,8.404c-10.641,0-18.812-2.72-24.513-8.172c-5.702-5.449-8.552-12.74-8.552-21.877
			c0-4.758,0.745-8.979,2.237-12.664c1.492-3.685,3.654-6.795,6.486-9.328c5.893-5.373,14.007-8.061,24.342-8.061
			c22.886,0,34.329,10.02,34.329,30.053C187.916,225.755,187.264,229.938,185.963,233.544 M188.288,194.106
			c-7.814-7.127-19.382-10.69-34.701-10.69c-14.48,0-25.666,3.642-33.555,10.92c-7.124,6.586-10.685,15.474-10.685,26.658
			c0,11.11,3.675,20.072,11.03,26.888c4.059,3.681,8.79,6.341,14.192,7.987c5.399,1.648,11.74,2.471,19.018,2.471
			c15.243,0,26.848-3.523,34.817-10.571c7.123-6.435,10.687-15.359,10.687-26.775C199.091,209.505,195.488,200.541,188.288,194.106z
			"/>
		<path id="path4258" inkscape:connector-curvature="0" fill="#231F20" d="M285.289,236.633c0,14.392-12.895,21.587-38.683,21.587
			c-7.883,0-14.521-0.5-19.916-1.503c-5.395-1.003-9.775-2.661-13.143-4.97c-2.601-1.763-4.667-4.059-6.198-6.895
			c-1.532-2.833-2.525-6.392-2.983-10.68l11.997-0.115c0,5.664,2.099,9.837,6.3,12.517c4.505,3.219,12.487,4.824,23.945,4.824
			c18.023,0,27.036-4.513,27.036-13.547c0-5.281-3.023-8.917-9.067-10.91c-1.226-0.383-8.515-1.396-21.868-3.042
			c-13.353-1.646-21.673-3.121-24.962-4.421c-7.117-2.831-10.674-7.923-10.674-15.273c0-7.195,3.176-12.555,9.536-16.076
			c3.141-1.454,7.067-2.582,11.779-3.387c4.712-0.805,10.17-1.207,16.376-1.207c24.822,0,37.232,7.789,37.232,23.362h-11.409
			c0-10.948-8.726-16.423-26.174-16.423c-8.876,0-15.497,1.109-19.859,3.329c-4.363,2.22-6.543,5.628-6.543,10.22
			c0,4.287,2.946,7.387,8.839,9.3c3.444,0.996,11.365,2.146,23.765,3.446c11.098,0.996,18.713,2.41,22.847,4.249
			C281.346,224.082,285.289,229.287,285.289,236.633z"/>
		<path id="path4260" inkscape:connector-curvature="0" fill="#231F20" d="M332.415,256.132c-1.838,0.304-3.467,0.534-4.881,0.685
			c-1.417,0.149-2.432,0.228-3.043,0.228c-7.811,0-13.444-1.13-16.9-3.395c-3.455-2.261-5.18-6.233-5.18-11.91v-48.796h-14.232
			v-7.176h14.119l0.114-23.054h10.938v23.054h19.048v7.293l-19.048-0.117v47.472c0,3.536,0.938,5.975,2.814,7.321
			c1.874,1.345,5.225,2.016,10.049,2.016c0.69,0.077,1.456,0.053,2.297-0.074c0.843-0.13,2.105-0.419,3.79-0.864L332.415,256.132z"
			/>
		<path id="path4262" inkscape:connector-curvature="0" fill="#231F20" d="M408.065,239.945c-2.984,2.446-6.386,4.321-10.214,5.622
			c-3.825,1.301-8.225,1.952-13.198,1.952c-22.875,0-34.312-9.449-34.312-28.344c0-8.798,2.926-15.682,8.781-20.655
			c5.85-4.973,14.094-7.459,24.729-7.459c10.712,0,18.841,2.508,24.388,7.516c5.547,5.011,8.321,11.725,8.321,20.137
			C416.561,227.897,413.727,234.97,408.065,239.945 M427.5,185.817h-10.939l-0.117,12.059c-4.819-4.896-8.268-7.991-10.333-9.294
			c-6.126-3.365-14.049-5.047-23.769-5.047c-14.241,0-25.114,3.25-32.614,9.756c-7.12,5.969-10.679,14.616-10.679,25.94
			c0,5.588,0.901,10.58,2.701,14.978c1.801,4.4,4.429,8.132,7.877,11.191c7.514,6.273,18.132,9.411,31.856,9.411
			c16.482,0,28.175-4.509,35.077-13.526v12.485c0,7.961-2.51,14.124-7.523,18.488c-5.015,4.364-13.264,6.548-24.746,6.548
			c-10.795,0-18.486-1.488-23.079-4.46c-3.444-2.286-5.818-6.252-7.118-11.889h-11.253c1.224,7.876,4.556,13.573,9.992,17.089
			c6.281,4.053,16.886,6.08,31.821,6.08c28.563,0,42.846-10.618,42.846-31.856V185.817z"/>
		<path id="path4264" inkscape:connector-curvature="0" fill="#231F20" d="M486.665,192.922c-3.287-0.534-6.348-0.802-9.175-0.802
			c-17.983,0-26.971,9.86-26.971,29.576v34.289H439.7l-0.119-70.162l10.939,0.109v12.519h0.575
			c1.835-4.932,4.743-8.674,8.723-11.218c4.359-2.465,10.861-3.698,19.507-3.698c1.758,0,3.227,0,4.415,0s2.163,0,2.925,0V192.922
			L486.665,192.922z"/>
		<path id="path4266" inkscape:connector-curvature="0" fill="#231F20" d="M496.836,216.468c1.379-7.974,4.479-14.147,9.298-18.52
			c3.138-2.531,6.697-4.43,10.673-5.694c3.981-1.264,8.459-1.899,13.432-1.899c9.72,0,17.651,2.665,23.816,7.995
			c6.16,5.328,9.239,11.367,9.239,18.117H496.836 M564.362,194.823c-3.827-3.838-8.579-6.68-14.245-8.523
			c-5.667-1.843-12.291-2.765-19.874-2.765c-14.173,0-25.165,3.295-32.982,9.884c-7.808,6.588-11.716,15.55-11.716,26.888
			c0,11.337,3.755,20.338,11.256,27.002c8.115,7.355,19.563,11.031,34.34,11.031c5.892,0,11.346-0.668,16.365-2.003
			c5.015-1.333,9.4-3.223,13.151-5.662c6.582-4.73,10.754-10.565,12.521-17.504h-11.827c-4.057,11.997-14.156,17.994-30.304,17.994
			c-11.406,0-20.172-2.931-26.289-8.8c-5.283-5.028-7.923-11.542-7.923-19.546h77.983
			C574.819,210.916,571.336,201.584,564.362,194.823L564.362,194.823z"/>
		<path id="path4268" inkscape:connector-curvature="0" fill="#367FAF" d="M690.381,227.324c0,20.831-16.8,31.247-50.403,31.247
			c-20.133,0-34.826-3.585-44.085-10.765c-7.582-5.896-11.367-14.89-11.367-26.988h13.526c0,19.446,13.973,29.167,41.923,29.167
			c13.402,0,23.092-1.988,29.065-5.967c5.053-3.517,7.582-9.026,7.582-16.521c0-7.421-3.448-12.623-10.341-15.608
			c-3.908-1.607-13.441-3.636-28.605-6.084c-19.069-2.906-31.432-5.813-37.099-8.719c-8.191-4.285-12.291-11.552-12.291-21.806
			c0-9.562,3.487-16.676,10.456-21.344c7.502-5.124,20.367-7.689,38.598-7.689c32.931,0,49.394,10.937,49.394,32.812h-13.641
			c0-16.387-12.227-24.578-36.682-24.578c-12.261,0-21.232,1.648-26.902,4.941c-5.369,3.525-8.047,8.694-8.047,15.51
			c0,7.123,3.444,12.14,10.341,15.052c3.67,1.686,14.471,4.021,32.394,7.01c16.851,2.529,28.222,5.475,34.119,8.845
			C686.362,209.975,690.381,217.138,690.381,227.324z"/>
		<path id="path4270" inkscape:connector-curvature="0" fill="#367FAF" d="M800.256,237.955c-5.058,4.049-10.771,7.086-17.132,9.113
			c-6.365,2.024-13.492,3.04-21.385,3.04c-16.097,0-29.108-4.338-39.036-13.013c-9.924-8.674-14.884-20.237-14.884-34.683
			c0-15.058,4.922-26.79,14.769-35.2c9.852-8.408,22.901-12.612,39.151-12.612c16.48,0,29.436,4.396,38.861,13.185
			c4.981,4.283,8.66,9.29,11.039,15.022c2.371,5.735,3.563,12.268,3.563,19.605C815.204,217.394,810.222,229.24,800.256,237.955
			 M807.442,245.045c7.05-4.968,12.266-10.993,15.637-18.068c3.376-7.074,5.062-15.244,5.062-24.499
			c0-16.602-5.518-29.912-16.544-39.934c-5.896-5.507-13.023-9.6-21.368-12.278c-8.349-2.678-17.89-4.017-28.61-4.017
			c-20.831,0-37.184,5.049-49.054,15.148c-11.874,10.096-17.804,23.79-17.804,41.075c0,16.827,5.99,30.408,17.97,40.733
			c11.98,10.326,28.35,15.488,49.1,15.488c8.115,0,15.195-0.549,21.24-1.648c6.05-1.101,11.18-2.786,15.395-5.058l19.98,13.849
			l8.345-7.665L807.442,245.045L807.442,245.045z"/>
		<path id="path4272" inkscape:connector-curvature="0" fill="#367FAF" d="M929.442,255.985h-92.424V148.95l12.704-0.232v98.329
			h79.835L929.442,255.985z"/>
	</g>
	<g id="g4478" transform="matrix(0.1791171,0,0,0.15182763,-34.048486,922.01888)">
		<path id="path4276" inkscape:connector-curvature="0" fill="#231F20" stroke="#231F20" stroke-width="4" d="M562.63,714.405
			c3.293-27.433,2.306-31.453,22.735-27.014l5.188,0.457c15.71,0.714,36.259-2.528,48.333-8.136
			c25.99-12.06,41.4-32.192,15.776-26.899c-58.457,12.06-62.476-7.738-62.476-7.738c61.726-91.586,87.531-207.857,65.259-236.313
			c-60.75-77.622-165.907-40.914-167.665-39.962l-0.562,0.103c-11.553-2.399-24.477-3.827-38.999-4.065
			c-26.448-0.431-46.523,6.94-61.748,18.486c0,0-187.59-77.287-178.864,97.194c1.854,37.119,53.204,280.868,114.442,207.247
			c22.386-26.925,44.015-49.688,44.015-49.688c10.741,7.14,23.602,10.78,37.091,9.474l1.041-0.894
			c-0.327,3.345-0.183,6.612,0.417,10.484c-15.773,17.624-11.139,20.724-42.679,27.214c-31.911,6.58-13.164,18.286-0.927,21.348
			c14.841,3.711,49.167,8.966,72.363-23.503l-0.924,3.705c6.191,4.953,5.771,35.582,6.649,57.47s2.344,42.316,6.807,54.357
			c4.46,12.047,9.727,43.062,51.182,34.18C533.728,824.489,560.214,813.805,562.63,714.405"/>
		<path id="path4278" inkscape:connector-curvature="0" fill="#417BA2" d="M654.666,652.812
			c-58.463,12.06-62.481-7.738-62.481-7.738c61.726-91.592,87.531-207.864,65.262-236.319
			c-60.747-77.615-165.91-40.908-167.663-39.956l-0.567,0.103c-11.553-2.399-24.477-3.827-39.004-4.065
			c-26.451-0.431-46.517,6.934-61.742,18.479c0,0-187.596-77.281-178.87,97.201c1.854,37.119,53.202,280.868,114.445,207.247
			c22.384-26.925,44.012-49.688,44.012-49.688c10.741,7.14,23.602,10.78,37.082,9.474l1.047-0.894
			c-0.324,3.345-0.174,6.612,0.423,10.484c-15.778,17.624-11.144,20.724-42.682,27.214c-31.914,6.58-13.164,18.286-0.924,21.348
			c14.838,3.711,49.17,8.966,72.36-23.503l-0.924,3.705c6.183,4.953,4.847,32.334,4.116,57.039
			c-0.725,24.705,2.898,49.417,7.766,62.661c4.871,13.25,11.294,35.189,52.76,26.307c34.645-7.423,52.599-26.667,55.096-58.757
			c1.772-22.814,5.782-19.444,6.035-39.84l3.219-9.654c3.707-30.932,0.589-40.908,21.931-36.27l5.188,0.457
			c15.71,0.714,36.27-2.528,48.338-8.136C664.875,667.65,680.286,647.518,654.666,652.812L654.666,652.812z"/>
		
			<path id="path4282" inkscape:connector-curvature="0" fill="none" stroke="#FFFFFF" stroke-width="1.3" stroke-linecap="round" stroke-linejoin="round" d="
			M437.875,670.538c-1.608,57.547,0.406,115.5,6.038,129.58c5.632,14.086,17.692,41.48,59.158,32.597
			c34.643-7.429,47.245-21.798,52.716-53.521c4.029-23.342,11.796-88.164,12.791-101.44"/>
		
			<path id="path4286" inkscape:connector-curvature="0" fill="none" stroke="#FFFFFF" stroke-width="1.3" stroke-linecap="round" stroke-linejoin="round" d="
			M388.182,382.036c0,0-187.724-76.728-178.998,97.748c1.856,37.126,53.204,280.88,114.448,207.253
			c22.381-26.925,42.622-48.041,42.622-48.041"/>
		
			<path id="path4290" inkscape:connector-curvature="0" fill="none" stroke="#FFFFFF" stroke-width="1.3" stroke-linecap="round" stroke-linejoin="round" d="
			M489.577,368.027c-6.502,2.039,104.424-40.548,167.461,40.001c22.266,28.455-3.538,144.727-65.262,236.326"/>
		
			<path id="path4294" inkscape:connector-curvature="0" fill="none" stroke="#FFFFFF" stroke-width="1.3" stroke-linecap="round" stroke-linejoin="bevel" d="
			M591.776,644.354c0,0,4.021,19.798,62.484,7.731c25.617-5.294,10.201,14.845-15.778,26.912
			c-21.32,9.892-69.124,12.433-69.904-1.241C566.566,642.475,593.737,653.191,591.776,644.354
			c-1.775-7.963-13.922-15.778-21.961-35.26c-7.014-17.006-96.229-147.435,24.742-128.068
			c4.432-0.914-31.551-115.063-144.761-116.915c-113.177-1.859-109.464,139.189-109.464,139.189"/>
		
			<path id="path4298" inkscape:connector-curvature="0" fill="none" stroke="#FFFFFF" stroke-width="1.3" stroke-linecap="round" stroke-linejoin="round" d="
			M406.195,656.414c-15.781,17.63-11.139,20.724-42.682,27.22c-31.911,6.58-13.161,18.286-0.927,21.342
			c14.841,3.718,49.172,8.973,72.363-23.509c7.066-9.893-0.041-25.67-9.74-29.69C420.521,649.834,414.254,647.396,406.195,656.414z"
			/>
		
			<path id="path4302" inkscape:connector-curvature="0" fill="none" stroke="#FFFFFF" stroke-width="1.3" stroke-linecap="round" stroke-linejoin="round" d="
			M405.162,656.105c-1.589-10.362,3.407-22.692,8.759-37.119c8.045-21.65,26.601-43.3,11.755-111.975
			c-11.065-51.173-85.298-10.652-85.344-3.711c-0.046,6.94,3.356,35.177-1.24,68.051c-6,42.902,27.296,79.185,65.641,75.473"/>
		<path id="path4306" inkscape:connector-curvature="0" fill="#FFFFFF" stroke="#FFFFFF" stroke-width="1.3" d="M387.498,502.257
			c-0.333,2.374,4.34,8.696,10.432,9.539c6.085,0.849,11.291-4.091,11.618-6.458c0.333-2.374-4.337-4.979-10.432-5.834
			C393.031,498.655,387.822,499.89,387.498,502.257z"/>
		<path id="path4310" inkscape:connector-curvature="0" fill="#FFFFFF" stroke="#FFFFFF" stroke-width="1.3" d="M572.784,497.427
			c0.33,2.367-4.34,8.696-10.433,9.539c-6.087,0.849-11.294-4.091-11.629-6.464c-0.322-2.367,4.351-4.978,10.438-5.827
			S572.454,495.06,572.784,497.427z"/>
		
			<path id="path4314" inkscape:connector-curvature="0" fill="none" stroke="#FFFFFF" stroke-width="1.3" stroke-linecap="round" stroke-linejoin="round" d="
			M594.557,481.025c1.003,18.588-4.005,31.253-4.634,51.044c-0.935,28.764,13.712,61.683-8.358,94.647"/>
	</g>
</g>
</svg>
